<?xml version="1.0" encoding="utf-8"?>
<!-- Generator: Adobe Illustrator 20.1.0, SVG Export Plug-In . SVG Version: 6.00 Build 0)  -->
<svg version="1.2" baseProfile="tiny" id="Layer_1" xmlns="http://www.w3.org/2000/svg" xmlns:xlink="http://www.w3.org/1999/xlink"
	 x="0px" y="0px" viewBox="0 0 960 560" xml:space="preserve">
<rect fill="#EAEAEA" width="960" height="560"/>
<rect x="13" y="36" fill="none" width="494" height="59"/>
<text transform="matrix(1 0 0 1 71.7227 78.5996)" fill="#333333" font-family="'MyriadPro-Regular'" font-size="60px">A</text>
<text transform="matrix(1 0 0 1 108.0825 78.5996)" fill="#333333" font-family="'MyriadPro-Regular'" font-size="60px">s</text>
<text transform="matrix(1 0 0 1 131.8423 78.5996)" fill="#333333" font-family="'MyriadPro-Regular'" font-size="60px">k</text>
<text transform="matrix(1 0 0 1 161.002 78.5996)" fill="#333333" font-family="'MyriadPro-Regular'" font-size="60px">i</text>
<text transform="matrix(1 0 0 1 175.0415 78.5996)" fill="#333333" font-family="'MyriadPro-Regular'" font-size="60px">n</text>
<text transform="matrix(1 0 0 1 208.3408 78.5996)" fill="#333333" font-family="'MyriadPro-Regular'" font-size="60px">g</text>
<text transform="matrix(1 0 0 1 241.8804 78.5996)" fill="#333333" font-family="'MyriadPro-Regular'" font-size="60px"> </text>
<text transform="matrix(1 0 0 1 254.5996 78.5996)" fill="#333333" font-family="'MyriadPro-Regular'" font-size="60px">f</text>
<text transform="matrix(1 0 0 1 271.3398 78.5996)" fill="#333333" font-family="'MyriadPro-Regular'" font-size="60px">o</text>
<text transform="matrix(1 0 0 1 304.2793 78.5996)" fill="#333333" font-family="'MyriadPro-Regular'" font-size="60px">r</text>
<text transform="matrix(1 0 0 1 323.8994 78.5996)" fill="#333333" font-family="'MyriadPro-Regular'" font-size="60px"> </text>
<text transform="matrix(1 0 0 1 336.6191 78.5996)" fill="#333333" font-family="'MyriadPro-Regular'" font-size="60px">h</text>
<text transform="matrix(1 0 0 1 369.9189 78.5996)" fill="#333333" font-family="'MyriadPro-Regular'" font-size="60px">e</text>
<text transform="matrix(1 0 0 1 399.9785 78.5996)" fill="#333333" font-family="'MyriadPro-Regular'" font-size="60px">l</text>
<text transform="matrix(1 0 0 1 414.1377 78.5996)" fill="#333333" font-family="'MyriadPro-Regular'" font-size="60px">p</text>
<text transform="matrix(1 0 0 1 165.5068 146)" fill="#333333" font-family="'MyriadPro-Regular'" font-size="36px">H</text>
<text transform="matrix(1 0 0 1 188.9785 146)" fill="#333333" font-family="'MyriadPro-Regular'" font-size="36px">a</text>
<text transform="matrix(1 0 0 1 206.0425 146)" fill="#333333" font-family="'MyriadPro-Regular'" font-size="36px">v</text>
<text transform="matrix(1 0 0 1 222.998 146)" fill="#333333" font-family="'MyriadPro-Regular'" font-size="36px">e</text>
<text transform="matrix(1 0 0 1 241.0342 146)" fill="#333333" font-family="'MyriadPro-Regular'" font-size="36px"> </text>
<text transform="matrix(1 0 0 1 248.6655 146)" fill="#333333" font-family="'MyriadPro-Regular'" font-size="36px">y</text>
<text transform="matrix(1 0 0 1 265.2617 146)" fill="#333333" font-family="'MyriadPro-Regular'" font-size="36px">o</text>
<text transform="matrix(1 0 0 1 285.0254 146)" fill="#333333" font-family="'MyriadPro-Regular'" font-size="36px">u</text>
<text transform="matrix(1 0 0 1 304.8613 146)" fill="#333333" font-family="'MyriadPro-Regular'" font-size="36px"> </text>
<text transform="matrix(1 0 0 1 158.0552 189.2002)" fill="#333333" font-family="'MyriadPro-Regular'" font-size="36px">t</text>
<text transform="matrix(1 0 0 1 169.9707 189.2002)" fill="#333333" font-family="'MyriadPro-Regular'" font-size="36px">r</text>
<text transform="matrix(1 0 0 1 181.8867 189.2002)" fill="#333333" font-family="'MyriadPro-Regular'" font-size="36px">i</text>
<text transform="matrix(1 0 0 1 190.3105 189.2002)" fill="#333333" font-family="'MyriadPro-Regular'" font-size="36px">e</text>
<text transform="matrix(1 0 0 1 208.3462 189.2002)" fill="#333333" font-family="'MyriadPro-Regular'" font-size="36px">d</text>
<text transform="matrix(1 0 0 1 228.6499 189.2002)" fill="#333333" font-family="'MyriadPro-Regular'" font-size="36px"> </text>
<text transform="matrix(1 0 0 1 236.2817 189.2002)" fill="#333333" font-family="'MyriadPro-Regular'" font-size="36px">h</text>
<text transform="matrix(1 0 0 1 256.2612 189.2002)" fill="#333333" font-family="'MyriadPro-Regular'" font-size="36px">a</text>
<text transform="matrix(1 0 0 1 273.6133 189.2002)" fill="#333333" font-family="'MyriadPro-Regular'" font-size="36px">r</text>
<text transform="matrix(1 0 0 1 285.0254 189.2002)" fill="#333333" font-family="'MyriadPro-Regular'" font-size="36px">d</text>
<text transform="matrix(1 0 0 1 305.3291 189.2002)" fill="#333333" font-family="'MyriadPro-Regular'" font-size="36px">?</text>
<text transform="matrix(1 0 0 1 544.4956 162)" fill="#333333" font-family="'MyriadPro-Regular'" font-size="36px">D</text>
<text transform="matrix(1 0 0 1 568.6152 162)" fill="#333333" font-family="'MyriadPro-Regular'" font-size="36px">o</text>
<text transform="matrix(1 0 0 1 588.3789 162)" fill="#333333" font-family="'MyriadPro-Regular'" font-size="36px"> </text>
<text transform="matrix(1 0 0 1 596.0107 162)" fill="#333333" font-family="'MyriadPro-Regular'" font-size="36px">y</text>
<text transform="matrix(1 0 0 1 612.6064 162)" fill="#333333" font-family="'MyriadPro-Regular'" font-size="36px">o</text>
<text transform="matrix(1 0 0 1 632.3701 162)" fill="#333333" font-family="'MyriadPro-Regular'" font-size="36px">u</text>
<text transform="matrix(1 0 0 1 652.2061 162)" fill="#333333" font-family="'MyriadPro-Regular'" font-size="36px"> </text>
<text transform="matrix(1 0 0 1 659.8379 162)" fill="#333333" font-family="'MyriadPro-Regular'" font-size="36px">h</text>
<text transform="matrix(1 0 0 1 679.8174 162)" fill="#333333" font-family="'MyriadPro-Regular'" font-size="36px">a</text>
<text transform="matrix(1 0 0 1 696.8813 162)" fill="#333333" font-family="'MyriadPro-Regular'" font-size="36px">v</text>
<text transform="matrix(1 0 0 1 713.8374 162)" fill="#333333" font-family="'MyriadPro-Regular'" font-size="36px">e</text>
<text transform="matrix(1 0 0 1 731.873 162)" fill="#333333" font-family="'MyriadPro-Regular'" font-size="36px"> </text>
<text transform="matrix(1 0 0 1 515.9478 205.2002)" fill="#333333" font-family="'MyriadPro-Regular'" font-size="36px">g</text>
<text transform="matrix(1 0 0 1 536.0713 205.2002)" fill="#333333" font-family="'MyriadPro-Regular'" font-size="36px">o</text>
<text transform="matrix(1 0 0 1 555.8354 205.2002)" fill="#333333" font-family="'MyriadPro-Regular'" font-size="36px">o</text>
<text transform="matrix(1 0 0 1 575.5991 205.2002)" fill="#333333" font-family="'MyriadPro-Regular'" font-size="36px">d</text>
<text transform="matrix(1 0 0 1 595.9028 205.2002)" fill="#333333" font-family="'MyriadPro-Regular'" font-size="36px"> </text>
<text transform="matrix(1 0 0 1 603.5347 205.2002)" fill="#333333" font-family="'MyriadPro-Regular'" font-size="36px">i</text>
<text transform="matrix(1 0 0 1 611.9585 205.2002)" fill="#333333" font-family="'MyriadPro-Regular'" font-size="36px">n</text>
<text transform="matrix(1 0 0 1 631.938 205.2002)" fill="#333333" font-family="'MyriadPro-Regular'" font-size="36px">f</text>
<text transform="matrix(1 0 0 1 641.9824 205.2002)" fill="#333333" font-family="'MyriadPro-Regular'" font-size="36px">o</text>
<text transform="matrix(1 0 0 1 661.7461 205.2002)" fill="#333333" font-family="'MyriadPro-Regular'" font-size="36px"> </text>
<text transform="matrix(1 0 0 1 669.3779 205.2002)" fill="#333333" font-family="'MyriadPro-Regular'" font-size="36px">r</text>
<text transform="matrix(1 0 0 1 680.79 205.2002)" fill="#333333" font-family="'MyriadPro-Regular'" font-size="36px">e</text>
<text transform="matrix(1 0 0 1 698.8257 205.2002)" fill="#333333" font-family="'MyriadPro-Regular'" font-size="36px">a</text>
<text transform="matrix(1 0 0 1 716.1772 205.2002)" fill="#333333" font-family="'MyriadPro-Regular'" font-size="36px">d</text>
<text transform="matrix(1 0 0 1 736.4814 205.2002)" fill="#333333" font-family="'MyriadPro-Regular'" font-size="36px">y</text>
<text transform="matrix(1 0 0 1 753.437 205.2002)" fill="#333333" font-family="'MyriadPro-Regular'" font-size="36px">?</text>
<text transform="matrix(1 0 0 1 563.8496 330.1189)" fill="#333333" font-family="'MyriadPro-Regular'" font-size="36px">A</text>
<text transform="matrix(1 0 0 1 585.7739 330.1189)" fill="#333333" font-family="'MyriadPro-Regular'" font-size="36px">r</text>
<text transform="matrix(1 0 0 1 597.186 330.1189)" fill="#333333" font-family="'MyriadPro-Regular'" font-size="36px">e</text>
<text transform="matrix(1 0 0 1 615.2217 330.1189)" fill="#333333" font-family="'MyriadPro-Regular'" font-size="36px"> </text>
<text transform="matrix(1 0 0 1 622.8535 330.1189)" fill="#333333" font-family="'MyriadPro-Regular'" font-size="36px">y</text>
<text transform="matrix(1 0 0 1 639.4492 330.1189)" fill="#333333" font-family="'MyriadPro-Regular'" font-size="36px">o</text>
<text transform="matrix(1 0 0 1 659.2129 330.1189)" fill="#333333" font-family="'MyriadPro-Regular'" font-size="36px">u</text>
<text transform="matrix(1 0 0 1 679.0488 330.1189)" fill="#333333" font-family="'MyriadPro-Regular'" font-size="36px"> </text>
<text transform="matrix(1 0 0 1 686.6807 330.1189)" fill="#333333" font-family="'MyriadPro-Regular'" font-size="36px">h</text>
<text transform="matrix(1 0 0 1 706.6602 330.1189)" fill="#333333" font-family="'MyriadPro-Regular'" font-size="36px">u</text>
<text transform="matrix(1 0 0 1 726.4961 330.1189)" fill="#333333" font-family="'MyriadPro-Regular'" font-size="36px">m</text>
<text transform="matrix(1 0 0 1 756.52 330.1189)" fill="#333333" font-family="'MyriadPro-Regular'" font-size="36px">b</text>
<text transform="matrix(1 0 0 1 777.0034 330.1189)" fill="#333333" font-family="'MyriadPro-Regular'" font-size="36px">l</text>
<text transform="matrix(1 0 0 1 785.4995 330.1189)" fill="#333333" font-family="'MyriadPro-Regular'" font-size="36px">e</text>
<text transform="matrix(1 0 0 1 803.5352 330.1189)" fill="#333333" font-family="'MyriadPro-Regular'" font-size="36px">?</text>
<text transform="matrix(1 0 0 1 182.1914 321.8959)" fill="#333333" font-family="'MyriadPro-Regular'" font-size="36px">A</text>
<text transform="matrix(1 0 0 1 204.1157 321.8959)" fill="#333333" font-family="'MyriadPro-Regular'" font-size="36px">r</text>
<text transform="matrix(1 0 0 1 215.5278 321.8959)" fill="#333333" font-family="'MyriadPro-Regular'" font-size="36px">e</text>
<text transform="matrix(1 0 0 1 233.5635 321.8959)" fill="#333333" font-family="'MyriadPro-Regular'" font-size="36px"> </text>
<text transform="matrix(1 0 0 1 241.1953 321.8959)" fill="#333333" font-family="'MyriadPro-Regular'" font-size="36px">y</text>
<text transform="matrix(1 0 0 1 257.791 321.8959)" fill="#333333" font-family="'MyriadPro-Regular'" font-size="36px">o</text>
<text transform="matrix(1 0 0 1 277.5547 321.8959)" fill="#333333" font-family="'MyriadPro-Regular'" font-size="36px">u</text>
<text transform="matrix(1 0 0 1 297.3906 321.8959)" fill="#333333" font-family="'MyriadPro-Regular'" font-size="36px"> </text>
<text transform="matrix(1 0 0 1 305.0225 321.8959)" fill="#333333" font-family="'MyriadPro-Regular'" font-size="36px">r</text>
<text transform="matrix(1 0 0 1 316.4346 321.8959)" fill="#333333" font-family="'MyriadPro-Regular'" font-size="36px">e</text>
<text transform="matrix(1 0 0 1 334.4702 321.8959)" fill="#333333" font-family="'MyriadPro-Regular'" font-size="36px">a</text>
<text transform="matrix(1 0 0 1 351.8218 321.8959)" fill="#333333" font-family="'MyriadPro-Regular'" font-size="36px">d</text>
<text transform="matrix(1 0 0 1 372.126 321.8959)" fill="#333333" font-family="'MyriadPro-Regular'" font-size="36px">y</text>
<text transform="matrix(1 0 0 1 389.0815 321.8959)" fill="#333333" font-family="'MyriadPro-Regular'" font-size="36px"> </text>
<text transform="matrix(1 0 0 1 396.7134 321.8959)" fill="#333333" font-family="'MyriadPro-Regular'" font-size="36px">t</text>
<text transform="matrix(1 0 0 1 408.4131 321.8959)" fill="#333333" font-family="'MyriadPro-Regular'" font-size="36px">o</text>
<text transform="matrix(1 0 0 1 428.1768 321.8959)" fill="#333333" font-family="'MyriadPro-Regular'" font-size="36px"> </text>
<text transform="matrix(1 0 0 1 203.5571 365.0961)" fill="#333333" font-family="'MyriadPro-Regular'" font-size="36px">s</text>
<text transform="matrix(1 0 0 1 217.813 365.0961)" fill="#333333" font-family="'MyriadPro-Regular'" font-size="36px">t</text>
<text transform="matrix(1 0 0 1 229.7285 365.0961)" fill="#333333" font-family="'MyriadPro-Regular'" font-size="36px">a</text>
<text transform="matrix(1 0 0 1 246.793 365.0961)" fill="#333333" font-family="'MyriadPro-Regular'" font-size="36px">y</text>
<text transform="matrix(1 0 0 1 263.7485 365.0961)" fill="#333333" font-family="'MyriadPro-Regular'" font-size="36px"> </text>
<text transform="matrix(1 0 0 1 271.3799 365.0961)" fill="#333333" font-family="'MyriadPro-Regular'" font-size="36px">i</text>
<text transform="matrix(1 0 0 1 279.8037 365.0961)" fill="#333333" font-family="'MyriadPro-Regular'" font-size="36px">n</text>
<text transform="matrix(1 0 0 1 299.3164 365.0961)" fill="#333333" font-family="'MyriadPro-Regular'" font-size="36px">v</text>
<text transform="matrix(1 0 0 1 316.272 365.0961)" fill="#333333" font-family="'MyriadPro-Regular'" font-size="36px">o</text>
<text transform="matrix(1 0 0 1 336.0356 365.0961)" fill="#333333" font-family="'MyriadPro-Regular'" font-size="36px">l</text>
<text transform="matrix(1 0 0 1 344.5312 365.0961)" fill="#333333" font-family="'MyriadPro-Regular'" font-size="36px">v</text>
<text transform="matrix(1 0 0 1 361.4873 365.0961)" fill="#333333" font-family="'MyriadPro-Regular'" font-size="36px">e</text>
<text transform="matrix(1 0 0 1 379.5229 365.0961)" fill="#333333" font-family="'MyriadPro-Regular'" font-size="36px">d</text>
<text transform="matrix(1 0 0 1 399.8267 365.0961)" fill="#333333" font-family="'MyriadPro-Regular'" font-size="36px">?</text>
<text transform="matrix(1 0 0 1 43.2939 455)" fill="#333333" font-family="'MyriadPro-Regular'" font-size="36px">H</text>
<text transform="matrix(1 0 0 1 66.7656 455)" fill="#333333" font-family="'MyriadPro-Regular'" font-size="36px">a</text>
<text transform="matrix(1 0 0 1 83.8296 455)" fill="#333333" font-family="'MyriadPro-Regular'" font-size="36px">v</text>
<text transform="matrix(1 0 0 1 100.7852 455)" fill="#333333" font-family="'MyriadPro-Regular'" font-size="36px">e</text>
<text transform="matrix(1 0 0 1 118.8213 455)" fill="#333333" font-family="'MyriadPro-Regular'" font-size="36px"> </text>
<text transform="matrix(1 0 0 1 126.4526 455)" fill="#333333" font-family="'MyriadPro-Regular'" font-size="36px">y</text>
<text transform="matrix(1 0 0 1 143.0488 455)" fill="#333333" font-family="'MyriadPro-Regular'" font-size="36px">o</text>
<text transform="matrix(1 0 0 1 162.8125 455)" fill="#333333" font-family="'MyriadPro-Regular'" font-size="36px">u</text>
<text transform="matrix(1 0 0 1 182.6484 455)" fill="#333333" font-family="'MyriadPro-Regular'" font-size="36px"> </text>
<text transform="matrix(1 0 0 1 190.2803 455)" fill="#333333" font-family="'MyriadPro-Regular'" font-size="36px">c</text>
<text transform="matrix(1 0 0 1 206.1919 455)" fill="#333333" font-family="'MyriadPro-Regular'" font-size="36px">o</text>
<text transform="matrix(1 0 0 1 225.9561 455)" fill="#333333" font-family="'MyriadPro-Regular'" font-size="36px">n</text>
<text transform="matrix(1 0 0 1 245.9355 455)" fill="#333333" font-family="'MyriadPro-Regular'" font-size="36px">s</text>
<text transform="matrix(1 0 0 1 260.1914 455)" fill="#333333" font-family="'MyriadPro-Regular'" font-size="36px">i</text>
<text transform="matrix(1 0 0 1 268.6152 455)" fill="#333333" font-family="'MyriadPro-Regular'" font-size="36px">d</text>
<text transform="matrix(1 0 0 1 288.9189 455)" fill="#333333" font-family="'MyriadPro-Regular'" font-size="36px">e</text>
<text transform="matrix(1 0 0 1 306.9551 455)" fill="#333333" font-family="'MyriadPro-Regular'" font-size="36px">r</text>
<text transform="matrix(1 0 0 1 318.3667 455)" fill="#333333" font-family="'MyriadPro-Regular'" font-size="36px">e</text>
<text transform="matrix(1 0 0 1 336.4023 455)" fill="#333333" font-family="'MyriadPro-Regular'" font-size="36px">d</text>
<text transform="matrix(1 0 0 1 67.2163 498.2002)" fill="#333333" font-family="'MyriadPro-Regular'" font-size="36px">t</text>
<text transform="matrix(1 0 0 1 79.1318 498.2002)" fill="#333333" font-family="'MyriadPro-Regular'" font-size="36px">h</text>
<text transform="matrix(1 0 0 1 99.1118 498.2002)" fill="#333333" font-family="'MyriadPro-Regular'" font-size="36px">e</text>
<text transform="matrix(1 0 0 1 117.1475 498.2002)" fill="#333333" font-family="'MyriadPro-Regular'" font-size="36px"> </text>
<text transform="matrix(1 0 0 1 124.7793 498.2002)" fill="#333333" font-family="'MyriadPro-Regular'" font-size="36px">o</text>
<text transform="matrix(1 0 0 1 144.543 498.2002)" fill="#333333" font-family="'MyriadPro-Regular'" font-size="36px">t</text>
<text transform="matrix(1 0 0 1 156.459 498.2002)" fill="#333333" font-family="'MyriadPro-Regular'" font-size="36px">h</text>
<text transform="matrix(1 0 0 1 176.4385 498.2002)" fill="#333333" font-family="'MyriadPro-Regular'" font-size="36px">e</text>
<text transform="matrix(1 0 0 1 194.4741 498.2002)" fill="#333333" font-family="'MyriadPro-Regular'" font-size="36px">r</text>
<text transform="matrix(1 0 0 1 206.2461 498.2002)" fill="#333333" font-family="'MyriadPro-Regular'" font-size="36px"> </text>
<text transform="matrix(1 0 0 1 213.8779 498.2002)" fill="#333333" font-family="'MyriadPro-Regular'" font-size="36px">p</text>
<text transform="matrix(1 0 0 1 234.3613 498.2002)" fill="#333333" font-family="'MyriadPro-Regular'" font-size="36px">e</text>
<text transform="matrix(1 0 0 1 252.397 498.2002)" fill="#333333" font-family="'MyriadPro-Regular'" font-size="36px">r</text>
<text transform="matrix(1 0 0 1 264.1689 498.2002)" fill="#333333" font-family="'MyriadPro-Regular'" font-size="36px">s</text>
<text transform="matrix(1 0 0 1 278.4248 498.2002)" fill="#333333" font-family="'MyriadPro-Regular'" font-size="36px">o</text>
<text transform="matrix(1 0 0 1 298.1885 498.2002)" fill="#333333" font-family="'MyriadPro-Regular'" font-size="36px">n</text>
<text transform="matrix(1 0 0 1 318.168 498.2002)" fill="#333333" font-family="'MyriadPro-Regular'" font-size="36px">?</text>
<rect x="420" y="455" fill="none" width="494" height="59"/>
<text transform="matrix(1 0 0 1 445.9634 497.5996)" fill="#333333" font-family="'MyriadPro-Regular'" font-size="60px">G</text>
<text transform="matrix(1 0 0 1 485.0225 497.5996)" fill="#333333" font-family="'MyriadPro-Regular'" font-size="60px">o</text>
<text transform="matrix(1 0 0 1 517.9624 497.5996)" fill="#333333" font-family="'MyriadPro-Regular'" font-size="60px"> </text>
<text transform="matrix(1 0 0 1 530.6816 497.5996)" fill="#333333" font-family="'MyriadPro-Regular'" font-size="60px">a</text>
<text transform="matrix(1 0 0 1 559.6011 497.5996)" fill="#333333" font-family="'MyriadPro-Regular'" font-size="60px">h</text>
<text transform="matrix(1 0 0 1 592.9009 497.5996)" fill="#333333" font-family="'MyriadPro-Regular'" font-size="60px">e</text>
<text transform="matrix(1 0 0 1 622.9604 497.5996)" fill="#333333" font-family="'MyriadPro-Regular'" font-size="60px">a</text>
<text transform="matrix(1 0 0 1 651.8804 497.5996)" fill="#333333" font-family="'MyriadPro-Regular'" font-size="60px">d</text>
<text transform="matrix(1 0 0 1 685.7207 497.5996)" fill="#333333" font-family="'MyriadPro-Regular'" font-size="60px"> </text>
<text transform="matrix(1 0 0 1 698.4404 497.5996)" fill="#333333" font-family="'MyriadPro-Regular'" font-size="60px">a</text>
<text transform="matrix(1 0 0 1 727.3604 497.5996)" fill="#333333" font-family="'MyriadPro-Regular'" font-size="60px">n</text>
<text transform="matrix(1 0 0 1 760.6602 497.5996)" fill="#333333" font-family="'MyriadPro-Regular'" font-size="60px">d</text>
<text transform="matrix(1 0 0 1 794.5 497.5996)" fill="#333333" font-family="'MyriadPro-Regular'" font-size="60px"> </text>
<text transform="matrix(1 0 0 1 807.2197 497.5996)" fill="#333333" font-family="'MyriadPro-Regular'" font-size="60px">a</text>
<text transform="matrix(1 0 0 1 836.1396 497.5996)" fill="#333333" font-family="'MyriadPro-Regular'" font-size="60px">s</text>
<text transform="matrix(1 0 0 1 859.8994 497.5996)" fill="#333333" font-family="'MyriadPro-Regular'" font-size="60px">k</text>
<g>
	<path fill="#4D4D4D" d="M90.1,103.6c0,0,0,0.3,0.1,0.8c0.1,0.5,0.2,1.3,0.4,2.2c0.4,1.9,1.2,4.5,2.4,7.6c1.3,3.1,3.1,6.6,5.5,10
		c2.4,3.5,5.4,6.9,8.6,10.1c3.2,3.2,6.8,6,10.3,8.5c0.9,0.6,1.8,1.2,2.6,1.7c0.9,0.5,1.7,1.1,2.6,1.5c0.6,0.3,1.2,0.6,1.7,1
		c0.3,0.2,0.5,0.3,0.8,0.4c1,0.5,1.9,1,2.5,1.2c0.6,0.3,0.9,0.4,0.9,0.4s0.1-1.8,0.2-3.5c0.1-1.7,0.3-3.5,0.3-3.5
		c4.6,5.9,10.2,11.3,17.8,15c-3.9,1.4-8.3,2.3-12.8,2.7c-4.5,0.4-9.1,0.3-13.7-0.2c0,0,1.4-1.1,2.8-2.3c1.4-1.2,2.7-2.4,2.7-2.4
		s-0.4-0.2-1-0.5c-0.7-0.3-1.6-0.8-2.7-1.3c-0.3-0.1-0.6-0.3-0.9-0.4c-0.6-0.3-1.2-0.7-1.9-1c-0.9-0.5-1.8-1.1-2.8-1.7
		c-0.9-0.6-1.9-1.2-2.8-1.9c-3.8-2.6-7.7-5.7-11.2-9.1c-3.5-3.5-6.8-7.2-9.4-11.1c-2.6-3.8-4.7-7.7-6.2-11.2
		c-1.4-3.5-2.3-6.5-2.8-8.7c-0.3-1.1-0.4-2-0.5-2.5c-0.1-0.6-0.2-0.9-0.2-0.9L90.1,103.6z"/>
</g>
<g>
	<path fill="#4D4D4D" d="M338.2,153.9c0,0,0.8-0.2,2.2-0.5c1.5-0.3,3.6-0.9,6.4-1.5c5.5-1.1,13.5-2.5,23.1-3.2
		c9.6-0.6,20.9-0.5,32.9,1c11.9,1.4,24.5,4,36.8,7.2c12.3,3.1,24.4,6.7,35.8,9.5c5.7,1.4,11.2,2.5,16.4,3.3c1.3,0.2,2.6,0.4,3.9,0.5
		c0.2,0,0.4,0,0.7,0.1c0.3,0,0.6,0.1,0.9,0.1c1.1,0.1,2.1,0.2,2.8,0.2c0.7,0,1.1,0.1,1.1,0.1s-0.6-1.7-1.1-3.4
		c-0.3-0.8-0.5-1.7-0.7-2.3c-0.2-0.6-0.3-1.1-0.3-1.1c6.7,3.9,13.9,7,22.2,8.6c-6.8,4.8-15.2,8.4-23.9,10.9c0,0,0.2-0.4,0.6-1
		c0.3-0.6,0.8-1.4,1.2-2.2c0.9-1.6,1.7-3.2,1.7-3.2s-0.4,0-1.1-0.1c-0.7,0-1.7-0.1-2.9-0.3c-0.3,0-0.6-0.1-0.9-0.1
		c-0.2,0-0.5-0.1-0.7-0.1c-1.4-0.1-2.7-0.3-4.1-0.5c-5.5-0.8-11.2-2-17-3.4c-11.6-2.8-23.7-6.4-35.9-9.5c-12.1-3.1-24.4-5.7-35.9-7
		c-11.6-1.4-22.4-1.5-31.7-0.9c-9.3,0.6-16.9,1.9-22.2,3c-2.7,0.5-4.7,1.1-6.1,1.4c-1.4,0.3-2.2,0.5-2.2,0.5L338.2,153.9z"/>
</g>
<g>
	<path fill="#4D4D4D" d="M774,159.6c0,0,1.1,0,3.2,0.1c1,0,2.3,0,3.9,0.1c1.5,0.1,3.3,0.2,5.2,0.4c7.8,0.7,18.9,2.4,31.6,7
		c12.6,4.5,26.7,12.1,39.1,23.5c6.2,5.7,12,12.3,16.8,19.7c4.8,7.4,8.8,15.7,11.2,24.5c2.4,8.8,3.3,18,2,27
		c-1.2,9-4.5,17.6-9.3,24.7c-4.8,7.2-11.1,12.9-17.5,17.3c-0.8,0.6-1.6,1.1-2.4,1.6c-0.8,0.5-1.6,1-2.4,1.5
		c-0.2,0.1-0.5,0.3-0.7,0.4c-0.3,0.2-0.6,0.3-0.8,0.5c-1.1,0.6-2,1.1-2.6,1.4c-0.6,0.3-1,0.5-1,0.5s1.4,1.2,2.8,2.3
		c1.4,1.1,2.9,2.2,2.9,2.2c-9.1,1.2-17.9,0.8-26.2-0.3c6.6-5.2,12.5-10.9,16.9-17c0,0,0.3,1.8,0.4,3.5c0.2,1.8,0.3,3.5,0.3,3.5
		s0.3-0.2,0.9-0.5c0.6-0.3,1.4-0.7,2.4-1.3c0.2-0.1,0.5-0.3,0.8-0.4c0.2-0.1,0.4-0.2,0.6-0.4c0.8-0.4,1.5-0.9,2.2-1.4
		c0.8-0.5,1.5-0.9,2.2-1.5c5.9-4,11.5-9.2,15.8-15.6c4.3-6.4,7.2-14,8.3-22c1.1-8,0.3-16.5-1.9-24.5c-2.2-8.1-5.8-15.7-10.4-22.7
		c-4.5-6.9-10-13.2-15.8-18.5c-11.7-10.8-25-17.9-37-22.2c-12-4.3-22.6-5.9-30-6.6c-1.9-0.2-3.5-0.3-5-0.4c-1.4-0.1-2.7-0.1-3.7-0.1
		c-2,0-3.1-0.1-3.1-0.1V159.6z"/>
</g>
<g>
	<path fill="#4D4D4D" d="M555,332.6c0,0-0.4,0.3-1.1,0.9c-0.8,0.5-1.8,1.4-3.3,2.3c-2.9,1.9-7.4,4.4-13.3,5.8
		c-5.9,1.5-12.9,1.8-20.2,1c-7.2-0.7-14.7-2.4-22-4c-7.3-1.6-14.6-3.1-21.4-4c-1.7-0.2-3.4-0.4-5-0.6c-1.6-0.2-3.2-0.3-4.8-0.4
		c-0.8-0.1-1.6-0.1-2.3-0.1c-0.2,0-0.4,0-0.6,0c-0.3,0-0.6,0-0.9,0c-1.2,0-2.1,0-2.8,0c-0.7,0-1.1,0-1.1,0s0.7,1.6,1.4,3.3
		c0.7,1.6,1.3,3.3,1.3,3.3c-7-3.3-14.6-5.8-22.9-7.2c6.7-4.9,14.5-9.2,23-12.4c0,0-0.8,1.6-1.5,3.3c-0.7,1.7-1.4,3.3-1.4,3.3
		s0.4,0,1.1,0c0.7,0,1.7,0,3,0c0.3,0,0.6,0,1,0c0.2,0,0.4,0,0.6,0c0.8,0,1.6,0.1,2.4,0.1c1.7,0.1,3.3,0.2,5.1,0.4
		c1.7,0.1,3.5,0.4,5.3,0.6c7.1,0.9,14.6,2.5,21.9,4.1c7.3,1.6,14.6,3.2,21.3,3.9c6.7,0.7,12.9,0.4,18-0.9c5.1-1.2,8.9-3.3,11.4-5
		c1.3-0.8,2.2-1.6,2.9-2c0.7-0.5,1-0.8,1-0.8L555,332.6z"/>
</g>
<g>
	<path fill="#4D4D4D" d="M160.7,333.7c0,0-0.5,0-1.4-0.1c-0.9,0-2.2-0.2-3.9-0.2c-3.3-0.1-8.1-0.1-13.7,1c-1.4,0.3-2.8,0.6-4.3,1
		c-0.7,0.2-1.5,0.4-2.2,0.7c-0.7,0.3-1.5,0.5-2.2,0.8c-3,1.2-6.1,2.6-9,4.6c-5.8,3.9-11,9.4-14.3,16.1c-1.7,3.3-2.9,6.9-3.8,10.5
		c-0.9,3.6-1.3,7.3-1.5,10.8c-0.1,3.6-0.1,7,0.3,10.3c0.1,0.8,0.2,1.6,0.2,2.4c0,0.2,0.1,0.4,0.1,0.6c0,0.3,0.1,0.6,0.1,0.9
		c0.2,1.1,0.3,2.1,0.4,2.7c0,0.3,0.1,0.6,0.1,0.8c0,0.2,0.1,0.3,0.1,0.3s1.5-1,3-1.9c1.5-0.9,3.1-1.8,3.1-1.8
		c-2.2,7.3-3.4,15.4-3.8,23.8c-5.7-6.1-11-13-15.5-20.9c0,0,1.7,0.5,3.5,1c1.7,0.5,3.5,0.9,3.5,0.9s0-0.1-0.1-0.3
		c0-0.2-0.1-0.5-0.1-0.8c-0.1-0.7-0.3-1.7-0.4-2.9c0-0.3-0.1-0.6-0.1-0.9c0-0.2-0.1-0.4-0.1-0.6c-0.1-0.9-0.2-1.7-0.2-2.6
		c-0.4-3.5-0.4-7.3-0.3-11.2c0.3-3.9,0.7-7.9,1.7-12c1-4,2.4-8,4.3-11.8c3.8-7.6,9.8-14.1,16.4-18.6c3.3-2.2,6.8-3.9,10.2-5.2
		c0.9-0.3,1.7-0.6,2.5-0.9c0.8-0.3,1.7-0.5,2.5-0.7c1.6-0.5,3.3-0.8,4.8-1.1c6.2-1.2,11.5-1.3,15.1-1.1c1.8,0,3.2,0.2,4.2,0.2
		c1,0.1,1.5,0.1,1.5,0.1L160.7,333.7z"/>
</g>
<g>
	<path fill="#4D4D4D" d="M357.9,463.8c0,0,0.1,0.3,0.4,1c0.3,0.6,0.7,1.6,1.3,2.7c1.2,2.3,3.1,5.6,5.8,9.3
		c5.4,7.3,14.3,16.1,24.9,22c2.7,1.4,5.4,2.8,8.2,3.8c1.4,0.6,2.8,1,4.1,1.4c1.4,0.3,2.8,0.8,4.1,1c2.7,0.6,5.4,0.9,7.9,1
		c1.2,0,2.3,0,3.3,0c1.1-0.1,2-0.1,2.7-0.2c0.3,0,0.6-0.1,0.7-0.1c0.2,0,0.3,0,0.3,0s-0.8-1.5-1.6-3.1c-0.8-1.6-1.4-3.2-1.4-3.2
		c3.1,1.4,6.6,2.5,10.4,2.9c3.8,0.4,7.8,0.3,12-0.4c-2.4,3.4-5.3,6.7-8.8,9.7c-3.5,3-7.7,5.4-12.3,7.3c0,0,0.8-1.7,1.4-3.4
		c0.7-1.7,1.2-3.4,1.2-3.4s-0.1,0-0.3,0c-0.2,0-0.5,0.1-0.9,0.1c-0.7,0.1-1.8,0.1-3.1,0.2c-1.2,0-2.4,0-3.7,0
		c-2.9-0.2-5.9-0.5-9-1.2c-1.6-0.3-3.1-0.8-4.6-1.2c-1.5-0.5-3.1-1-4.6-1.6c-3.1-1.1-6-2.6-9-4.2c-11.6-6.4-21.1-15.8-26.9-23.8
		c-3-4-5-7.6-6.3-10.2c-0.7-1.3-1.1-2.4-1.4-3.1c-0.3-0.7-0.5-1.1-0.5-1.1L357.9,463.8z"/>
</g>
</svg>
